<?xml version="1.0" standalone="no"?><!DOCTYPE svg PUBLIC "-//W3C//DTD SVG 1.1//EN" "http://www.w3.org/Graphics/SVG/1.1/DTD/svg11.dtd"><svg t="1499062188637" class="icon" style="" viewBox="0 0 1024 1024" version="1.1" xmlns="http://www.w3.org/2000/svg" p-id="9483" xmlns:xlink="http://www.w3.org/1999/xlink" width="200" height="200"><defs><style type="text/css"></style></defs><path d="M787.754667 448.290133 541.866667 448.290133 541.866667 202.402133c0-19.729067-15.2832-35.712-34.133333-35.712s-34.133333 15.9744-34.133333 35.712l0 245.888L227.712 448.290133c-19.720533 0-35.712 15.2832-35.712 34.133333s15.991467 34.133333 35.712 34.133333L473.6 516.5568 473.6 762.453333c0 19.720533 15.2832 35.712 34.133333 35.712s34.133333-15.991467 34.133333-35.712L541.866667 516.5568l245.888 0c19.729067 0 35.712-15.2832 35.712-34.133333S807.492267 448.290133 787.754667 448.290133z" p-id="9484" fill="#e6e6e6"></path></svg>