<?xml version="1.0" standalone="no"?><!DOCTYPE svg PUBLIC "-//W3C//DTD SVG 1.1//EN" "http://www.w3.org/Graphics/SVG/1.1/DTD/svg11.dtd"><svg t="1499061810628" class="icon" style="" viewBox="0 0 1024 1024" version="1.1" xmlns="http://www.w3.org/2000/svg" p-id="8176" xmlns:xlink="http://www.w3.org/1999/xlink" width="200" height="200"><defs><style type="text/css"></style></defs><path d="M872.727273 768c11.636364 11.636364 20.945455 30.254545 20.945454 48.872727 0 39.563636-30.254545 69.818182-69.818182 69.818182-18.618182 0-37.236364-6.981818-48.872727-20.945454l-204.8-204.8c-41.890909 25.6-90.763636 39.563636-141.963636 39.563636-153.6 0-279.272727-125.672727-279.272727-279.272727s125.672727-279.272727 279.272727-279.272728 279.272727 125.672727 279.272727 279.272728c0 51.2-13.963636 100.072727-39.563636 141.963636l204.8 204.8zM428.218182 214.109091c-116.363636 0-209.454545 93.090909-209.454546 209.454545s93.090909 209.454545 209.454546 209.454546 209.454545-93.090909 209.454545-209.454546-95.418182-209.454545-209.454545-209.454545z" fill="#ffffff" p-id="8177"></path></svg>