<?xml version="1.0" standalone="no"?><!DOCTYPE svg PUBLIC "-//W3C//DTD SVG 1.1//EN" "http://www.w3.org/Graphics/SVG/1.1/DTD/svg11.dtd"><svg t="1499063770884" class="icon" style="" viewBox="0 0 1024 1024" version="1.1" xmlns="http://www.w3.org/2000/svg" p-id="15426" xmlns:xlink="http://www.w3.org/1999/xlink" width="200" height="200"><defs><style type="text/css"></style></defs><path d="M874.030675 149.950126c-199.933501-199.933501-524.153448-199.933501-724.086949 0-199.933501 199.933501-199.933501 524.179048 0 724.086949 199.933501 199.933501 524.179048 199.933501 724.086949 0 199.933501-199.933501 199.933501-524.153448 0-724.086949z m-689.399383 689.399382C3.846352 658.590168 3.846352 365.473832 184.631292 184.663292 365.467432 3.852752 658.583768 3.852752 839.368708 184.637692c180.78494 180.81054 180.78494 473.926876 0 654.788615-180.81054 180.861739-473.926876 180.733741-654.711816-0.051199z" p-id="15427" fill="#8a8a8a"></path><path d="M439.092111 440.736891L230.40352 829.519231l378.36327-217.750878L824.82809 230.40992l-385.735979 210.326971z m88.498094 142.641417a53.170535 53.170535 0 0 1-53.042537-53.452132c0-29.490831 23.807702-53.452132 53.042537-53.452132s53.016937 23.9613 53.016937 53.452132a53.247334 53.247334 0 0 1-53.016937 53.452132z" p-id="15428" fill="#8a8a8a"></path></svg>