<?xml version="1.0" standalone="no"?><!DOCTYPE svg PUBLIC "-//W3C//DTD SVG 1.1//EN" "http://www.w3.org/Graphics/SVG/1.1/DTD/svg11.dtd"><svg t="1499066445342" class="icon" style="" viewBox="0 0 1024 1024" version="1.1" xmlns="http://www.w3.org/2000/svg" p-id="20203" xmlns:xlink="http://www.w3.org/1999/xlink" width="200" height="200"><defs><style type="text/css"></style></defs><path d="M842.472727 737.745455c-83.781818-46.545455-176.872727-76.8-176.872727-128 0-72.145455 97.745455-139.636364 97.745455-314.181819 0-60.509091-16.290909-279.272727-249.018182-279.272727-235.054545 0-251.345455 218.763636-251.345455 279.272727 0 174.545455 97.745455 242.036364 97.745455 314.181819 0 51.2-93.090909 83.781818-176.872728 128-74.472727 41.890909-153.6 72.145455-153.6 153.6 0 60.509091 55.854545 102.4 111.709091 102.4h744.727273c55.854545 0 111.709091-44.218182 111.709091-102.4-2.327273-83.781818-81.454545-114.036364-155.927273-153.6z m25.6 195.490909H155.927273c-18.618182 0-65.163636-2.327273-65.163637-46.545455 0-46.545455 67.490909-74.472727 172.218182-123.345454 97.745455-46.545455 155.927273-88.436364 155.927273-155.927273 0-95.418182-95.418182-139.636364-95.418182-311.854546 0-104.727273 72.145455-218.763636 188.509091-218.763636s188.509091 111.709091 188.509091 218.763636C700.509091 465.454545 605.090909 509.672727 605.090909 605.090909c0 67.490909 58.181818 109.381818 155.927273 155.927273 104.727273 48.872727 172.218182 76.8 172.218182 123.345454s-46.545455 48.872727-65.163637 48.872728z" fill="#8a8a8a" p-id="20204"></path></svg>