<?xml version="1.0" standalone="no"?><!DOCTYPE svg PUBLIC "-//W3C//DTD SVG 1.1//EN" "http://www.w3.org/Graphics/SVG/1.1/DTD/svg11.dtd"><svg t="1499065173958" class="icon" style="" viewBox="0 0 1024 1024" version="1.1" xmlns="http://www.w3.org/2000/svg" p-id="17335" xmlns:xlink="http://www.w3.org/1999/xlink" width="200" height="200"><defs><style type="text/css"></style></defs><path d="M266.066797 882.802114 266.066797 714.965803C193.354514 652.177401 154.964093 565.773106 154.964093 464.792541c0-177.441518 166.320788-321.803029 370.748597-321.803029 161.894632 0 342.970488 137.619499 342.970488 321.803029 0 187.38486-147.44121 328.686132-342.970488 328.686132-22.382554 0-68.410191-3.483514-91.555372-6.835667L266.066797 882.802114zM525.712689 162.274121c-193.797251 0-351.463987 135.708675-351.463987 302.518419 0 96.686988 37.232494 179.117595 107.666626 238.345855l3.437295 2.899685L285.352623 849.544525l145.105893-82.994976 3.361883 0.546124c20.58363 3.314447 69.540144 7.099607 91.893506 7.099607 184.531395 0 323.685878-133.014546 323.685878-309.401523C849.399784 291.645816 678.511749 162.274121 525.712689 162.274121z" p-id="17336" fill="#bfbfbf"></path></svg>