<?xml version="1.0" standalone="no"?><!DOCTYPE svg PUBLIC "-//W3C//DTD SVG 1.1//EN" "http://www.w3.org/Graphics/SVG/1.1/DTD/svg11.dtd"><svg t="1499223210254" class="icon" style="" viewBox="0 0 1127 1024" version="1.1" xmlns="http://www.w3.org/2000/svg" p-id="1445" xmlns:xlink="http://www.w3.org/1999/xlink" width="220.1171875" height="200"><defs><style type="text/css"></style></defs><path d="M320 473.6m-64 0a2.5 2.5 0 1 0 128 0 2.5 2.5 0 1 0-128 0Z" p-id="1446" fill="#e6e6e6"></path><path d="M576 473.6m-64 0a2.5 2.5 0 1 0 128 0 2.5 2.5 0 1 0-128 0Z" p-id="1447" fill="#e6e6e6"></path><path d="M832 473.6m-64 0a2.5 2.5 0 1 0 128 0 2.5 2.5 0 1 0-128 0Z" p-id="1448" fill="#e6e6e6"></path><path d="M484.027697 890.601091C392.59188 978.318564 295.527918 957.461384 295.527918 957.461384 295.527918 957.461384 344.872996 920.613356 369.026624 862.059784 197.032936 798.928302 76.8 654.488113 76.8 486.4 76.8 260.184166 294.568699 76.8 563.2 76.8 831.831301 76.8 1049.6 260.184166 1049.6 486.4 1049.6 712.615834 831.831301 896 563.2 896 536.240724 896 509.79372 894.153009 484.027697 890.601091ZM269.706964 901.616983C107.946441 816.152648 0 662.163428 0 486.4 0 217.768698 252.153229 0 563.2 0 874.246771 0 1126.4 217.768698 1126.4 486.4 1126.4 755.031301 874.246771 972.8 563.2 972.8 538.294208 972.8 513.766001 971.403809 489.714593 968.697111 297.090501 1075.986132 165.593581 994.1229 165.593581 994.1229 165.593581 994.1229 220.525176 964.471962 269.706964 901.616983Z" p-id="1449" fill="#e6e6e6"></path></svg>